<?xml version="1.0" standalone="no"?>
<!DOCTYPE svg PUBLIC "-//W3C//DTD SVG 20010904//EN"
 "http://www.w3.org/TR/2001/REC-SVG-20010904/DTD/svg10.dtd">
<svg version="1.0" xmlns="http://www.w3.org/2000/svg"
 width="413.000000pt" height="531.000000pt" viewBox="0 0 413.000000 531.000000"
 preserveAspectRatio="xMidYMid meet">

<g transform="translate(0.000000,531.000000) scale(0.100000,-0.100000)"
fill="#000000" stroke="none">
<path d="M1897 5014 c-5 -5 -30 -12 -122 -35 -22 -5 -51 -19 -65 -29 l-25 -20
25 0 c24 -1 25 -1 5 -16 -11 -8 -20 -20 -20 -27 0 -7 -24 -16 -58 -21 l-59 -9
29 -19 c16 -12 20 -17 8 -13 -11 4 -33 10 -49 13 -23 4 -28 2 -23 -11 4 -12
-9 -21 -57 -40 -34 -13 -73 -32 -85 -43 -67 -54 -82 -71 -85 -94 -1 -14 -6
-31 -10 -38 -4 -7 -4 -12 1 -12 4 0 -3 -7 -16 -16 -13 -9 -28 -28 -35 -43 -21
-47 -78 -141 -85 -141 -4 0 -13 -11 -19 -25 -6 -14 -31 -55 -56 -92 -44 -68
-71 -137 -87 -223 -4 -25 -14 -78 -21 -117 -9 -46 -11 -74 -4 -76 6 -2 5 -15
-2 -36 -7 -18 -9 -38 -6 -43 7 -11 14 -53 17 -100 1 -18 5 -37 8 -43 3 -5 7
-34 8 -64 1 -30 4 -58 7 -63 3 -4 11 -43 19 -86 12 -72 28 -112 71 -178 20
-29 19 -29 -41 -3 -60 26 -104 20 -139 -22 -36 -42 -41 -85 -21 -201 33 -204
62 -299 108 -360 14 -18 31 -50 38 -72 8 -21 24 -49 37 -63 19 -21 28 -24 62
-18 38 6 40 5 40 -18 0 -14 14 -81 31 -149 39 -156 49 -263 26 -281 -9 -7 -21
-34 -26 -62 -7 -39 -18 -57 -48 -84 -21 -19 -83 -76 -138 -126 -186 -171 -314
-264 -412 -299 -38 -13 -384 -159 -513 -216 -36 -15 -74 -30 -85 -32 -20 -3
-20 -12 -23 -626 l-2 -622 815 0 c770 0 815 1 815 18 0 9 -5 24 -10 32 -8 13
-10 13 -10 -2 0 -38 -20 -25 -34 23 -19 61 -46 191 -51 235 -1 17 -9 42 -16
55 -7 13 -16 40 -20 59 -3 19 -16 78 -28 130 -12 52 -31 133 -41 180 -24 111
-52 214 -88 325 -17 50 -38 119 -47 155 -10 36 -23 85 -31 110 -7 25 -18 86
-25 137 -12 86 -11 98 10 185 13 51 28 114 34 140 6 27 14 48 19 48 4 0 12
-19 18 -42 17 -65 94 -174 183 -260 43 -43 83 -78 87 -78 4 0 20 -12 37 -28
54 -50 135 -117 146 -121 7 -2 32 -21 57 -41 61 -50 215 -150 271 -177 l45
-21 85 70 c46 39 86 73 89 77 3 3 37 32 75 63 92 74 134 119 117 125 -10 4
-10 8 -1 19 8 10 8 14 0 14 -6 0 -11 -5 -11 -11 0 -7 -16 -10 -44 -8 -25 3
-48 -1 -55 -8 -16 -17 -14 -23 9 -23 11 0 20 5 20 10 0 6 16 10 35 10 19 0 35
-4 35 -10 0 -5 -13 -10 -29 -10 -17 0 -33 -5 -36 -10 -3 -5 -28 -10 -56 -10
l-49 0 42 40 42 40 -54 -7 c-56 -6 -69 2 -15 10 17 2 50 13 75 25 25 12 51 22
58 22 6 0 12 5 12 11 0 8 4 8 14 0 12 -10 17 -8 25 6 5 11 26 24 45 30 41 13
50 -2 12 -17 -27 -10 -46 -38 -39 -58 4 -9 -2 -11 -20 -7 -14 4 -28 2 -31 -3
-3 -5 10 -13 30 -17 38 -7 39 -6 122 70 29 27 112 129 170 208 12 18 32 58 45
89 23 61 37 74 37 36 0 -13 9 -52 20 -86 34 -109 22 -248 -41 -452 -28 -94
-88 -297 -104 -355 -8 -27 -17 -72 -20 -100 -3 -27 -11 -68 -16 -90 -6 -22
-17 -65 -24 -95 -8 -30 -23 -89 -34 -130 -12 -41 -21 -83 -21 -92 0 -10 -11
-50 -24 -90 -13 -40 -32 -100 -41 -133 -9 -33 -25 -86 -36 -118 -10 -31 -19
-66 -19 -77 0 -20 7 -20 800 -20 l800 0 0 623 0 624 -72 28 c-400 154 -537
214 -783 344 -108 57 -127 71 -190 143 -94 108 -96 112 -104 171 -5 41 -11 54
-28 62 -29 12 -28 17 0 63 41 64 106 218 133 315 22 77 30 93 47 94 27 2 41
25 21 36 -8 4 -20 5 -27 2 -6 -4 -4 0 6 8 9 8 22 28 28 46 12 34 25 40 32 14
3 -14 6 -11 11 10 5 15 12 27 17 27 11 0 33 43 61 121 16 46 22 85 22 137 -1
41 2 68 6 62 15 -24 22 11 23 109 0 85 -3 103 -22 135 -22 35 -41 47 -41 26 0
-5 -5 -10 -10 -10 -18 0 -70 -43 -70 -58 0 -10 8 -13 25 -9 36 6 64 -20 72
-66 6 -40 -11 -163 -29 -207 -27 -63 -46 -95 -79 -134 -39 -44 -39 -44 -39
-81 0 -14 -4 -25 -10 -25 -5 0 -7 13 -4 29 4 16 1 32 -5 35 -7 5 -11 -9 -11
-43 0 -28 -4 -51 -10 -51 -5 0 -10 17 -10 38 -1 33 -2 35 -12 17 -6 -11 -19
-25 -27 -32 -13 -9 -14 -14 -3 -24 18 -19 15 -31 -6 -25 -10 4 -27 0 -38 -8
-15 -12 -17 -17 -6 -27 15 -16 16 -69 1 -69 -7 0 -9 11 -5 30 4 22 2 30 -9 30
-11 0 -15 -12 -15 -44 0 -47 -5 -50 -53 -31 -13 6 -16 3 -11 -9 8 -20 -13 -47
-30 -40 -6 2 -23 -7 -36 -21 -19 -21 -21 -25 -7 -25 9 0 17 -4 17 -10 0 -15
-26 -12 -40 5 -19 23 -34 18 -47 -16 -14 -36 -37 -30 -30 7 3 18 0 24 -14 24
-25 0 -24 17 2 31 l21 11 -21 19 c-26 24 -30 24 -24 -1 5 -17 0 -20 -31 -20
-39 0 -47 -12 -18 -30 15 -10 14 -10 -5 -5 -14 4 -26 0 -35 -13 -13 -20 -78
-29 -78 -11 0 5 7 9 15 9 8 0 15 4 15 9 0 5 -9 7 -20 4 -11 -3 -20 -9 -20 -13
0 -4 -13 -10 -29 -13 -16 -3 -37 -14 -46 -24 -36 -35 -168 -71 -192 -52 -10 9
-13 8 -13 -2 0 -10 -3 -10 -12 -1 -16 16 -28 15 -28 -1 0 -10 -10 -12 -37 -7
-70 13 -84 21 -77 44 6 20 6 20 -8 2 -10 -13 -17 -15 -22 -8 -4 7 -2 12 5 12
15 0 -30 44 -53 53 -10 3 -18 14 -18 22 0 12 -6 15 -20 10 -11 -3 -20 -2 -20
3 0 26 154 47 416 58 127 6 155 4 173 -8 12 -9 30 -14 41 -11 10 3 21 0 24 -6
4 -5 13 -8 21 -4 18 6 20 43 2 43 -7 0 -18 9 -25 21 -9 13 -20 19 -32 16 -11
-3 -24 1 -31 9 -6 8 -27 14 -45 14 -19 0 -34 5 -34 10 0 6 -15 3 -32 -7 -33
-17 -85 -19 -102 -3 -5 5 -15 6 -22 3 -8 -3 -27 0 -44 5 -21 8 -30 8 -30 0 0
-6 -14 -8 -35 -6 -29 3 -35 1 -35 -14 0 -24 -17 -23 -25 2 -5 15 -12 18 -36
13 -22 -4 -29 -2 -29 11 0 21 -1 20 -54 -8 -50 -26 -59 -24 -50 10 5 19 1 26
-17 33 -15 5 -25 5 -28 -1 -1 -5 -11 -2 -21 7 -17 15 -19 15 -33 -5 -9 -13
-20 -19 -27 -15 -6 4 -18 -1 -25 -11 -14 -18 -14 -18 -15 1 -1 20 -1 20 -15 1
-9 -11 -15 -14 -15 -7 0 8 -10 5 -27 -8 -15 -13 -34 -19 -45 -16 -12 4 -18 1
-18 -9 0 -19 -11 -21 -28 -4 -9 9 -12 8 -12 -4 0 -9 5 -20 10 -23 6 -3 10 -16
10 -28 0 -22 -1 -22 -20 3 -11 14 -20 36 -20 49 0 16 -4 21 -14 18 -10 -4 -13
-1 -9 9 3 7 0 14 -5 14 -6 0 -14 -9 -17 -20 -11 -34 -26 -23 -19 14 5 28 2 37
-15 48 -25 15 -27 28 -4 28 9 0 13 3 9 8 -4 4 -13 7 -19 7 -5 0 -12 6 -14 13
-3 7 4 12 18 12 21 0 21 1 -5 25 -15 14 -34 25 -42 25 -18 0 -20 70 -2 88 17
17 0 28 -22 14 -17 -11 -20 -10 -20 9 0 11 5 17 10 14 13 -8 13 18 1 31 -6 5
-13 29 -17 53 -6 35 -4 42 6 36 9 -6 12 -4 8 6 -3 8 -9 22 -13 32 -4 10 -3 17
4 17 21 0 11 19 -11 22 -18 2 -22 8 -20 27 2 13 -1 27 -8 31 -8 5 -8 14 0 35
6 16 9 34 6 42 -6 14 27 36 38 26 4 -4 9 3 13 15 6 26 41 30 50 6 4 -11 13
-14 30 -9 15 3 36 -1 54 -12 20 -12 32 -14 37 -7 8 11 144 50 206 59 67 9 55
18 -14 10 -102 -11 -113 -11 -117 3 -3 8 10 12 44 13 26 1 54 1 60 0 7 -1 32
4 55 11 24 6 50 13 59 14 60 5 93 34 69 58 -5 5 -10 18 -10 27 0 10 -9 21 -21
24 -11 4 -18 9 -15 13 4 3 19 -3 34 -14 15 -11 35 -23 45 -27 21 -8 22 -35 1
-65 -8 -12 -13 -26 -10 -30 3 -5 -8 -19 -24 -30 -42 -32 -54 -57 -34 -76 8 -9
11 -16 5 -16 -16 0 -13 -27 4 -34 8 -3 12 -12 9 -20 -3 -8 -1 -17 5 -21 16 -9
13 -51 -4 -65 -8 -7 -15 -21 -15 -30 0 -15 5 -17 27 -11 26 7 45 31 24 31 -6
0 -11 5 -11 10 0 6 9 10 20 10 11 0 20 7 20 15 0 8 5 15 10 15 6 0 8 -10 4
-24 -4 -18 -1 -25 15 -29 19 -5 21 -1 21 39 0 37 -3 44 -20 44 -11 0 -20 6
-20 14 0 7 -3 27 -6 43 -5 25 -2 31 15 36 12 3 21 1 21 -4 0 -5 -7 -9 -15 -9
-8 0 -15 -5 -15 -10 0 -6 7 -13 15 -16 8 -4 15 -12 15 -20 0 -20 9 -17 31 9
20 24 25 62 9 72 -15 9 -12 45 4 45 19 0 40 26 27 34 -5 4 -9 19 -9 34 1 15
-5 44 -12 64 -10 27 -11 40 -3 50 17 20 8 76 -16 102 -25 27 -140 69 -175 64
-13 -1 -30 3 -39 10 -9 8 -40 17 -69 21 -30 4 -59 10 -66 15 -6 4 -12 2 -12
-3 0 -16 -46 -13 -63 3 -11 11 -17 12 -26 3 -8 -8 -11 -8 -11 1 0 7 -11 12
-24 12 -25 0 -51 22 -39 33 3 4 -6 7 -20 7 -17 0 -31 8 -38 22 -12 22 -14 22
36 2 8 -3 15 -1 15 5 0 6 -8 11 -19 11 -26 0 -53 57 -39 83 5 10 7 30 3 45 -5
21 -4 23 8 14 32 -27 51 36 20 70 -9 10 -11 18 -6 18 6 0 10 8 9 17 0 12 7 19
22 21 12 2 22 8 22 13 0 5 11 14 25 19 14 5 25 17 25 27 -1 17 -1 17 -14 1 -7
-10 -21 -18 -30 -18 -16 0 -15 3 3 29 12 16 22 39 23 52 2 13 11 30 21 37 9 7
15 17 12 22 -8 13 6 40 20 40 8 0 16 8 20 19 11 35 40 59 80 65 22 3 60 11 85
17 68 15 158 22 141 11 -8 -6 -20 -8 -27 -5 -6 2 -15 0 -19 -6 -9 -16 19 -13
65 5 22 9 50 14 62 11 12 -3 30 -1 41 5 14 7 22 7 27 -2 6 -9 13 -9 29 -1 11
7 21 16 21 21 0 5 7 7 15 4 8 -4 15 -2 15 4 0 5 27 8 60 8 46 -2 59 1 56 11
-7 17 19 17 36 0 7 -8 35 -17 63 -20 29 -4 58 -16 72 -29 13 -12 32 -22 43
-23 11 -1 28 -10 38 -19 9 -10 35 -28 57 -40 35 -19 40 -25 37 -54 -2 -18 1
-32 6 -32 5 0 15 -12 22 -26 13 -23 15 -24 21 -7 7 17 8 17 8 -1 1 -14 6 -17
22 -13 14 4 19 2 15 -8 -2 -7 -1 -26 4 -42 5 -15 9 -20 9 -10 1 9 5 17 11 17
5 0 7 -13 4 -30 -5 -23 -3 -30 9 -30 23 0 51 -51 48 -87 -2 -25 1 -32 12 -27
10 3 14 -3 15 -25 0 -17 -4 -33 -9 -36 -11 -7 -12 -45 -1 -45 4 0 13 5 20 12
7 7 12 8 13 3 1 -6 2 -19 3 -30 1 -13 7 -19 19 -17 12 2 17 -4 17 -23 0 -18 5
-25 20 -25 11 0 20 -4 20 -10 0 -5 -10 -10 -23 -10 -29 0 -54 -55 -30 -64 20
-8 19 -8 37 10 17 17 36 11 36 -12 0 -8 7 -14 15 -14 8 0 19 -9 25 -19 13 -25
13 -71 0 -71 -14 0 -12 -28 2 -32 7 -3 13 -26 15 -54 1 -27 12 -112 24 -189
11 -77 20 -157 20 -177 0 -20 3 -40 8 -43 5 -3 8 31 6 74 -3 66 0 81 13 87 10
4 20 6 25 6 4 -1 7 3 7 9 0 7 9 9 21 6 25 -7 49 1 49 15 0 11 -84 6 -112 -6
-15 -7 -18 -3 -18 21 0 16 4 33 8 39 14 15 54 143 47 153 -3 5 -2 12 3 15 5 3
7 22 5 42 -1 21 1 42 5 48 4 6 7 39 7 73 0 35 3 63 7 63 14 0 7 346 -8 412
-21 93 -20 91 -53 145 -32 51 -38 108 -13 118 6 2 12 12 12 21 0 9 11 27 25
40 18 16 25 34 25 59 0 19 -4 35 -10 35 -5 0 -10 6 -10 14 0 7 -7 20 -16 27
-15 12 -16 11 -10 -7 6 -21 -16 -89 -26 -79 -3 3 -13 -11 -23 -30 -9 -20 -19
-34 -22 -31 -3 3 4 20 15 38 27 44 52 131 45 157 -7 28 -23 27 -23 -1 0 -30
-10 -16 -17 23 -5 37 -60 112 -74 103 -5 -3 -9 0 -9 6 0 6 -4 8 -10 5 -10 -6
-60 22 -73 42 -13 20 -63 43 -119 53 -29 6 -70 19 -90 30 -31 16 -38 17 -38 5
0 -9 -9 -15 -24 -15 -17 0 -36 15 -65 51 -23 29 -41 47 -41 41 0 -6 5 -14 10
-17 6 -3 10 -16 10 -28 0 -18 -14 -8 -70 52 -74 77 -86 84 -45 23 36 -53 33
-61 -17 -51 -24 4 -63 8 -88 9 -25 0 -67 11 -95 24 -41 19 -63 23 -129 20 -76
-3 -81 -1 -113 27 -26 22 -43 29 -77 29 -23 0 -45 -3 -49 -6z m1179 -582 c-18
-16 -18 -16 -6 6 6 13 14 21 18 18 3 -4 -2 -14 -12 -24z m-1274 -967 c17 -8
39 -15 50 -15 10 0 18 -4 18 -9 0 -4 -43 -11 -96 -14 -78 -4 -100 -2 -124 11
-50 28 -41 33 73 40 29 2 61 -3 79 -13z m112 -80 c58 -25 38 -28 -52 -6 -48
11 -97 17 -121 14 -29 -4 -41 -2 -41 7 0 18 163 7 214 -15z m-154 -25 c0 -5
-7 -10 -16 -10 -8 0 -12 5 -9 10 3 6 10 10 16 10 5 0 9 -4 9 -10z m57 -16 c-9
-9 -28 6 -21 18 4 6 10 6 17 -1 6 -6 8 -13 4 -17z m93 -10 c22 -9 40 -20 40
-24 0 -8 -123 -51 -129 -45 -5 6 33 84 41 85 4 0 26 -7 48 -16z m-214 -47 c20
-24 15 -28 -21 -19 -38 11 -53 35 -35 57 13 16 15 16 27 -2 7 -10 20 -26 29
-36z m-587 -191 c16 -19 -19 -62 -42 -53 -17 6 -23 47 -10 60 11 12 40 8 52
-7z m909 2 c17 -17 15 -27 -6 -25 -10 0 -18 9 -18 19 0 21 7 23 24 6z m-1038
-48 c0 -5 -4 -10 -10 -10 -5 0 -10 5 -10 10 0 6 5 10 10 10 6 0 10 -4 10 -10z
m-3 -82 c-3 -8 -6 -5 -6 6 -1 11 2 17 5 13 3 -3 4 -12 1 -19z m423 -3 c0 -14
-4 -25 -9 -25 -5 0 -11 11 -13 25 -4 17 -1 25 8 25 8 0 14 -11 14 -25z m-453
-47 c-3 -8 -6 -5 -6 6 -1 11 2 17 5 13 3 -3 4 -12 1 -19z m214 -8 c-10 -6 -12
-22 -8 -61 5 -41 4 -50 -6 -40 -16 16 -15 85 2 105 8 9 16 14 20 11 3 -3 -1
-10 -8 -15z m2128 -104 c-6 -21 -13 -36 -16 -33 -3 3 0 22 7 42 16 47 23 40 9
-9z m-2214 -24 c-8 -8 -25 10 -19 20 4 6 9 5 15 -3 4 -7 6 -15 4 -17z m2178
-77 c-3 -9 -8 -14 -10 -11 -3 3 -2 9 2 15 9 16 15 13 8 -4z m-48 -75 c3 -5 1
-10 -4 -10 -6 0 -11 5 -11 10 0 6 2 10 4 10 3 0 8 -4 11 -10z m-2044 -53 c-1
-12 -15 -9 -19 4 -3 6 1 10 8 8 6 -3 11 -8 11 -12z m694 -67 c3 -5 1 -10 -4
-10 -6 0 -11 5 -11 10 0 6 2 10 4 10 3 0 8 -4 11 -10z m1210 0 c-3 -5 -10 -10
-16 -10 -5 0 -9 5 -9 10 0 6 7 10 16 10 8 0 12 -4 9 -10z m-1195 -54 c0 -3 -4
-8 -10 -11 -5 -3 -10 -1 -10 4 0 6 5 11 10 11 6 0 10 -2 10 -4z m-285 -16 c3
-5 1 -10 -4 -10 -6 0 -11 5 -11 10 0 6 2 10 4 10 3 0 8 -4 11 -10z m1409 -71
c-3 -5 -10 -7 -15 -3 -5 3 -7 10 -3 15 3 5 10 7 15 3 5 -3 7 -10 3 -15z
m-1089 -19 c-3 -5 -12 -10 -20 -10 -8 0 -17 5 -20 10 -4 6 5 10 20 10 15 0 24
-4 20 -10z m125 -45 c7 -8 8 -15 2 -15 -5 0 -15 7 -22 15 -7 8 -8 15 -2 15 5
0 15 -7 22 -15z m630 5 c13 -9 12 -12 -4 -25 -26 -20 -36 -19 -36 3 0 31 14
39 40 22z m-62 -30 c3 -34 -4 -37 -30 -13 -21 19 -24 35 -4 27 8 -3 17 -1 21
5 9 16 11 14 13 -19z m68 -30 c8 0 14 -4 14 -9 0 -12 -53 -21 -64 -11 -12 12
4 32 21 26 8 -3 21 -6 29 -6z m-121 -56 c13 -5 14 -9 4 -15 -21 -12 -8 -17 34
-11 27 3 37 8 33 18 -3 7 0 11 8 8 17 -6 50 -64 36 -64 -5 0 -24 -12 -40 -26
-16 -15 -40 -32 -52 -38 -17 -9 -22 -19 -20 -39 3 -19 -1 -27 -12 -27 -9 0
-16 -5 -16 -11 0 -5 -4 -8 -9 -5 -5 3 -23 -2 -41 -11 -25 -12 -66 -17 -165
-18 -73 -1 -137 -5 -143 -9 -6 -4 -16 3 -22 14 -6 11 -17 20 -25 20 -8 0 -20
9 -27 20 -13 21 -48 28 -48 10 0 -5 9 -10 20 -10 23 0 27 -15 6 -23 -15 -6
-50 26 -40 36 4 4 -1 18 -10 31 -9 14 -16 32 -16 40 0 17 53 46 84 46 22 0 58
19 41 21 -11 1 35 14 105 30 25 6 98 8 162 5 68 -3 120 -1 123 5 7 11 8 11 30
3z m-900 -684 c3 -5 -1 -10 -9 -10 -9 0 -16 5 -16 10 0 6 4 10 9 10 6 0 13 -4
16 -10z m69 -20 c14 -5 26 -15 26 -22 0 -22 -17 -41 -29 -33 -9 5 -9 10 0 21
7 8 7 14 1 14 -5 0 -13 -8 -16 -17 -6 -15 -8 -15 -16 -3 -6 9 -5 18 3 23 8 6
3 7 -11 4 -19 -5 -21 -3 -11 9 14 17 20 17 53 4z m86 -40 c0 -5 -4 -10 -10
-10 -5 0 -10 5 -10 10 0 6 5 10 10 10 6 0 10 -4 10 -10z m-30 -32 c0 -12 -1
-19 -3 -17 -1 2 -9 12 -16 22 -12 14 -11 17 3 17 10 0 16 -8 16 -22z m85 12
c3 -5 -1 -10 -10 -10 -9 0 -13 5 -10 10 3 6 8 10 10 10 2 0 7 -4 10 -10z
m-180 -10 c3 -5 17 -10 29 -10 13 0 29 -7 36 -15 7 -8 21 -15 31 -15 10 0 21
-4 24 -10 9 -15 -19 -12 -51 5 -16 8 -37 15 -46 15 -10 0 -18 4 -18 8 0 5 -10
14 -22 20 -18 8 -19 11 -6 11 9 1 20 -3 23 -9z m145 -10 c0 -5 -4 -10 -10 -10
-5 0 -10 5 -10 10 0 6 5 10 10 10 6 0 10 -4 10 -10z m75 0 c-3 -5 -10 -10 -16
-10 -5 0 -9 5 -9 10 0 6 7 10 16 10 8 0 12 -4 9 -10z m125 -23 c0 -4 -9 -6
-20 -3 -11 3 -29 9 -40 12 -11 3 -20 9 -20 13 0 5 18 3 40 -2 22 -6 40 -15 40
-20z m207 7 c-3 -3 -12 -4 -19 -1 -8 3 -5 6 6 6 11 1 17 -2 13 -5z m61 -1
c-10 -2 -26 -2 -35 0 -10 3 -2 5 17 5 19 0 27 -2 18 -5z m-411 -9 c-3 -3 -12
-4 -19 -1 -8 3 -5 6 6 6 11 1 17 -2 13 -5z m266 -1 c-7 -2 -19 -2 -25 0 -7 3
-2 5 12 5 14 0 19 -2 13 -5z m114 -149 c-3 -3 -12 -4 -19 -1 -8 3 -5 6 6 6 11
1 17 -2 13 -5z"/>
<path d="M1535 3800 c-3 -5 1 -10 10 -10 9 0 13 5 10 10 -3 6 -8 10 -10 10 -2
0 -7 -4 -10 -10z"/>
<path d="M2810 3638 c-38 -18 -65 -24 -40 -8 10 6 -10 8 -60 4 -41 -4 -80 -10
-87 -16 -7 -5 -12 -5 -15 1 -2 7 -12 6 -28 -2 -14 -6 -40 -12 -57 -12 -18 1
-35 -5 -37 -12 -3 -7 -17 -13 -31 -13 -14 0 -25 -4 -25 -9 0 -6 -19 -11 -42
-13 -41 -3 -43 -5 -43 -35 0 -19 -7 -37 -17 -45 -16 -11 -16 -16 -4 -39 7 -14
16 -47 20 -72 4 -26 11 -49 16 -52 4 -3 6 -14 3 -24 -3 -13 2 -23 17 -31 31
-16 35 -6 11 27 -26 37 -19 81 16 89 30 8 40 -2 26 -25 -17 -27 2 -48 57 -62
67 -17 160 -23 160 -10 0 6 7 11 15 11 9 0 25 16 36 35 23 39 23 39 50 25 42
-23 5 -70 -55 -70 -23 0 -35 -4 -31 -10 4 -6 14 -8 24 -5 18 6 90 -27 103 -47
6 -10 8 -10 8 0 0 6 7 12 15 12 9 0 25 9 37 19 15 15 26 18 44 11 19 -8 26 -5
35 13 7 12 15 24 20 27 4 3 8 28 10 55 1 28 6 55 12 62 5 7 6 16 3 22 -4 5 2
12 13 16 25 8 35 83 11 90 -8 3 -21 19 -29 36 -32 73 -88 93 -161 57z m6 -149
c6 -5 18 -7 26 -4 8 3 21 -1 28 -10 7 -8 27 -15 46 -15 18 0 36 -5 39 -10 4
-6 3 -10 -2 -9 -21 4 -33 -2 -33 -16 0 -9 -9 -15 -25 -15 -14 0 -25 4 -25 9 0
5 -42 12 -92 16 -51 5 -100 9 -108 10 -8 1 -34 2 -58 3 -39 2 -42 4 -28 17 8
8 24 15 35 15 12 0 21 4 21 9 0 19 153 18 176 0z m-118 -65 c46 -13 19 -19
-83 -19 -92 0 -101 1 -72 12 35 13 119 16 155 7z m-88 -44 c0 -5 -7 -10 -15
-10 -8 0 -15 5 -15 10 0 6 7 10 15 10 8 0 15 -4 15 -10z m51 -13 c-13 -13 -26
-3 -16 12 3 6 11 8 17 5 6 -4 6 -10 -1 -17z m-112 -44 c17 -20 29 -38 28 -39
-3 -4 -109 25 -116 32 -6 5 38 43 51 44 3 0 20 -17 37 -37z"/>
<path d="M2985 3610 c-3 -5 -1 -10 4 -10 6 0 11 5 11 10 0 6 -2 10 -4 10 -3 0
-8 -4 -11 -10z"/>
<path d="M3037 3566 c-4 -10 -1 -13 8 -9 8 3 12 9 9 14 -7 12 -11 11 -17 -5z"/>
<path d="M2480 3246 c0 -2 15 -9 33 -15 29 -10 30 -9 13 4 -18 14 -46 20 -46
11z"/>
<path d="M2552 3244 c4 -3 26 -7 50 -9 31 -3 37 -2 23 5 -22 10 -82 13 -73 4z"/>
<path d="M2678 3213 c7 -3 16 -2 19 1 4 3 -2 6 -13 5 -11 0 -14 -3 -6 -6z"/>
<path d="M2730 3210 c0 -5 5 -10 10 -10 6 0 10 5 10 10 0 6 -4 10 -10 10 -5 0
-10 -4 -10 -10z"/>
<path d="M1775 3190 c-3 -5 1 -10 10 -10 9 0 13 -4 10 -10 -3 -5 -2 -10 3 -10
5 0 12 9 15 20 4 15 0 20 -13 20 -11 0 -22 -4 -25 -10z"/>
<path d="M1915 3150 c-3 -6 1 -7 9 -4 18 7 21 14 7 14 -6 0 -13 -4 -16 -10z"/>
<path d="M3227 2944 c-3 -16 -1 -30 4 -32 5 -2 4 -12 -2 -24 -8 -14 -8 -23 0
-31 8 -8 11 -4 12 14 0 13 2 35 4 49 4 38 -11 59 -18 24z"/>
<path d="M2071 2869 c-6 -11 -16 -19 -21 -19 -6 0 -24 -10 -40 -21 -20 -15
-36 -20 -54 -15 -18 4 -26 2 -27 -6 0 -7 -4 -4 -9 7 -7 15 -9 10 -9 -22 -1
-24 4 -43 9 -43 6 0 10 -6 10 -13 0 -16 42 -37 74 -37 33 0 89 20 102 37 9 11
21 12 59 3 55 -12 117 1 137 28 14 20 98 30 98 12 0 -5 -3 -9 -8 -7 -7 2 -12
-6 -12 -23 0 -16 66 -23 91 -9 54 28 51 53 -11 84 -59 30 -68 31 -94 6 -21
-20 -143 -44 -151 -31 -3 4 -17 10 -32 13 -17 3 -35 18 -45 35 -22 37 -51 46
-67 21z m19 -108 c0 -17 -15 -19 -35 -5 -18 13 -18 14 8 14 15 0 27 -4 27 -9z"/>
<path d="M1490 2824 c0 -8 5 -12 10 -9 6 4 8 11 5 16 -9 14 -15 11 -15 -7z"/>
<path d="M1495 2760 c-3 -5 1 -10 9 -10 9 0 16 5 16 10 0 6 -4 10 -9 10 -6 0
-13 -4 -16 -10z"/>
<path d="M2318 2742 c-10 -2 -18 -7 -18 -12 0 -12 32 -22 41 -13 12 12 -4 29
-23 25z"/>
<path d="M3137 2726 c-6 -15 1 -26 15 -26 11 0 10 27 -1 34 -5 3 -11 0 -14 -8z"/>
<path d="M2270 2640 c-19 -5 -52 -12 -72 -15 -59 -9 -47 -28 15 -22 68 6 118
15 126 22 5 6 -19 26 -29 24 -3 -1 -21 -5 -40 -9z"/>
<path d="M1934 2605 c-8 -20 4 -35 27 -35 14 0 19 7 19 25 0 18 -5 25 -20 25
-11 0 -23 -7 -26 -15z"/>
<path d="M2042 2609 c6 -4 7 -12 4 -18 -4 -6 -1 -11 8 -11 8 0 18 5 21 11 4 6
17 14 29 19 15 6 9 8 -26 7 -25 -1 -42 -5 -36 -8z"/>
<path d="M2007 2571 c-3 -13 -1 -18 9 -14 7 2 10 11 7 19 -7 19 -10 18 -16 -5z"/>
<path d="M2955 2529 c-4 -6 -5 -13 -2 -16 7 -7 27 6 27 18 0 12 -17 12 -25 -2z"/>
<path d="M2945 2461 c-3 -5 -1 -12 5 -16 5 -3 10 1 10 9 0 18 -6 21 -15 7z"/>
<path d="M2415 1440 c-4 -6 7 -10 25 -10 18 0 29 4 25 10 -3 6 -15 10 -25 10
-10 0 -22 -4 -25 -10z"/>
<path d="M2023 1040 c-32 -13 -29 -17 7 -12 16 2 27 8 24 13 -3 5 -6 9 -7 8
-1 0 -12 -4 -24 -9z"/>
<path d="M1928 998 c-16 -5 -28 -14 -28 -19 0 -12 1 -12 46 11 41 20 29 26
-18 8z"/>
<path d="M1819 917 c-60 -55 -92 -100 -136 -192 -37 -78 -51 -150 -35 -174 8
-11 15 -10 43 5 19 11 38 25 42 32 4 6 12 12 17 12 6 0 20 10 31 21 17 17 23
19 30 8 39 -60 74 -289 45 -289 -8 0 -16 5 -18 12 -3 7 -23 -12 -46 -42 -23
-30 -47 -61 -52 -67 -12 -15 -33 -84 -67 -221 -5 -21 -3 -22 61 -22 l66 0 0
30 c0 25 -4 30 -24 30 -30 0 -40 13 -31 40 5 15 15 20 41 20 31 0 34 -2 34
-30 0 -16 5 -30 11 -30 6 0 8 -9 3 -22 -6 -20 -5 -21 9 -6 9 8 20 31 25 49 7
26 13 33 28 31 41 -8 45 -48 5 -57 -22 -5 -28 -12 -28 -31 0 -23 1 -24 80 -24
l80 0 -7 39 c-3 23 -2 42 4 46 5 3 10 17 10 30 0 18 4 22 20 18 11 -3 20 0 20
6 0 6 -6 11 -12 11 -9 0 -8 4 2 10 11 7 7 10 -17 10 -30 0 -33 3 -33 30 0 23
5 31 24 36 24 6 44 44 24 44 -6 0 -5 6 2 15 11 13 8 15 -14 15 -31 0 -44 24
-28 51 9 15 8 18 -9 21 -26 4 -26 22 1 26 11 2 18 8 15 13 -4 5 1 9 9 9 10 0
13 6 9 16 -4 10 -16 14 -37 12 -27 -3 -31 0 -28 20 4 27 -24 75 -38 67 -6 -4
-10 1 -10 9 0 9 -4 16 -10 16 -5 0 -10 5 -10 11 0 6 7 9 15 5 10 -3 15 1 15
11 0 13 4 11 20 -7 11 -13 20 -30 20 -38 0 -9 3 -12 6 -9 12 11 -19 125 -32
120 -21 -8 -27 18 -8 32 16 12 17 17 7 34 -17 27 -16 32 2 25 8 -4 15 -2 15 4
0 21 -13 42 -26 42 -7 0 -19 18 -25 41 -11 36 -14 38 -21 20 -5 -15 -16 -21
-38 -21 -27 0 -30 3 -30 30 0 30 11 36 63 31 9 -1 17 1 17 6 0 8 -44 53 -51
53 -2 0 -25 -19 -50 -43z m86 -167 c-4 -12 -13 -20 -23 -18 -23 4 -25 23 -6
42 21 21 39 7 29 -24z m13 -122 c-2 -28 -7 -33 -28 -33 -19 0 -26 6 -28 24 -4
25 12 41 41 41 15 0 18 -7 15 -32z m2 -134 c0 -19 -5 -25 -17 -22 -22 4 -30
38 -12 49 19 11 29 2 29 -27z m-99 -234 c13 0 11 -44 -2 -57 -14 -14 -46 -6
-53 14 -9 22 13 56 31 49 8 -3 19 -6 24 -6z m149 -56 c0 -26 -17 -33 -26 -9
-8 20 3 48 16 40 5 -3 10 -17 10 -31z m27 -6 c-3 -7 -5 -2 -5 12 0 14 2 19 5
13 2 -7 2 -19 0 -25z m-127 -48 c0 -5 -5 -10 -11 -10 -5 0 -7 5 -4 10 3 6 8
10 11 10 2 0 4 -4 4 -10z"/>
<path d="M2320 956 c0 -2 6 -15 14 -30 19 -37 1 -93 -31 -93 -13 0 -23 4 -23
9 0 5 -5 6 -10 3 -7 -4 -7 -13 0 -25 8 -15 6 -24 -10 -40 -11 -11 -20 -33 -20
-50 0 -16 -6 -33 -14 -37 -14 -9 -28 -93 -26 -160 1 -39 -19 -87 -43 -104 -5
-4 5 -8 22 -11 31 -5 31 -4 31 42 0 34 5 52 19 64 11 10 22 35 26 55 4 27 20
51 54 85 l47 47 12 -26 c7 -14 16 -23 22 -20 5 3 16 -9 23 -27 l14 -33 13 43
c7 23 18 42 24 42 6 0 19 13 28 30 17 29 17 30 -31 102 -45 69 -112 138 -132
138 -5 0 -9 -2 -9 -4z m-2 -203 c-2 -17 -9 -28 -18 -28 -9 0 -16 11 -18 28 -3
22 1 27 18 27 17 0 21 -5 18 -27z"/>
<path d="M2065 550 c-4 -6 3 -10 14 -10 25 0 27 6 6 13 -8 4 -17 2 -20 -3z"/>
<path d="M2070 509 c0 -5 5 -7 10 -4 6 3 10 8 10 11 0 2 -4 4 -10 4 -5 0 -10
-5 -10 -11z"/>
<path d="M2075 479 c-11 -16 -1 -19 13 -3 7 8 8 14 3 14 -5 0 -13 -5 -16 -11z"/>
<path d="M2080 441 c0 -6 4 -13 10 -16 6 -3 7 1 4 9 -7 18 -14 21 -14 7z"/>
<path d="M2060 394 c0 -14 36 -33 63 -34 25 0 37 13 20 23 -16 9 -83 18 -83
11z"/>
<path d="M2208 378 c7 -7 12 -22 12 -34 0 -17 -8 -24 -30 -29 -41 -9 -38 -25
5 -25 21 0 35 -5 36 -12 0 -7 2 -32 5 -55 5 -35 3 -42 -15 -48 -29 -9 -27 -29
3 -21 31 8 55 -18 39 -43 -8 -12 -8 -23 0 -37 10 -18 11 -18 17 6 4 18 13 25
28 24 27 -1 27 -2 -2 60 -22 48 -38 97 -50 157 -6 26 -37 69 -52 69 -4 0 -3
-5 4 -12z"/>
<path d="M2050 111 c0 -6 5 -13 10 -16 6 -3 10 1 10 9 0 9 -4 16 -10 16 -5 0
-10 -4 -10 -9z"/>
<path d="M2338 69 c-2 -16 -11 -25 -24 -27 -16 -2 -20 -8 -17 -23 4 -15 14
-19 49 -19 l44 0 -12 28 c-7 15 -18 35 -24 46 -12 17 -13 17 -16 -5z"/>
<path d="M2124 72 c-9 -6 -16 -42 -8 -42 1 0 9 11 18 25 16 25 12 32 -10 17z"/>
<path d="M2050 10 c0 -5 11 -10 25 -10 14 0 25 5 25 10 0 6 -11 10 -25 10 -14
0 -25 -4 -25 -10z"/>
<path d="M2240 10 c0 -5 5 -10 10 -10 6 0 10 5 10 10 0 6 -4 10 -10 10 -5 0
-10 -4 -10 -10z"/>
</g>
</svg>
